<mxfile host="app.diagrams.net" modified="2023-12-18T04:59:41.313Z" agent="Mozilla/5.0 (Windows NT 10.0; Win64; x64) AppleWebKit/537.36 (KHTML, like Gecko) Chrome/120.0.0.0 Safari/537.36" version="22.1.11" etag="EXD6rAkUbTsiX0Cr2JGB" type="github">
  <diagram name="Page-1" id="87G44Rb2bPg3GrBp7KDx">
    <mxGraphModel>
      <root>
        <mxCell id="0" />
        <mxCell id="1" parent="0" />
      </root>
    </mxGraphModel>
  </diagram>
</mxfile>
